<svg version="1.1" id="Layer_1" xmlns="http://www.w3.org/2000/svg" xmlns:xlink="http://www.w3.org/1999/xlink" x="0px" y="0px"
	 width="100%" viewBox="0 0 512 512" enable-background="new 0 0 512 512" xml:space="preserve">
<path fill="#030104" opacity="1.000000" stroke="none" 
	d="
M513.000000,235.000000 
	C513.000000,249.354233 513.000000,263.708466 512.596924,278.691833 
	C511.131897,287.386993 510.166931,295.467133 508.989563,303.516205 
	C505.681305,326.132812 498.207062,347.479614 488.420624,367.993591 
	C478.634644,388.506592 466.240601,407.347076 451.162476,424.475128 
	C437.089996,440.460754 421.670227,454.855469 404.314209,467.179321 
	C386.386383,479.909180 367.040192,490.113037 346.467987,497.673157 
	C328.623047,504.231018 310.235809,509.140045 291.181854,511.039215 
	C287.096680,511.446381 283.059357,512.333801 279.000000,513.000000 
	C264.645782,513.000000 250.291550,513.000000 235.308228,512.596802 
	C226.611923,511.131775 218.530334,510.168030 210.480240,508.989288 
	C187.860901,505.677155 166.511169,498.204041 145.993851,488.412964 
	C125.477585,478.622406 106.639000,466.221222 89.505157,451.144928 
	C73.512993,437.073181 59.125938,421.640533 46.796356,404.286987 
	C34.059006,386.359528 23.700695,367.050598 16.388962,346.397919 
	C11.477317,332.524536 8.640173,317.908783 5.031125,303.585815 
	C3.483040,297.442047 2.331637,291.198303 1.000000,285.000000 
	C1.000000,266.645782 1.000000,248.291550 1.387233,229.329391 
	C2.845637,222.674149 4.054150,216.647400 4.963478,210.575851 
	C8.350582,187.960281 15.750447,166.588989 25.538239,146.071228 
	C35.324322,125.557022 47.705887,106.693237 62.800152,89.569649 
	C76.884865,73.591347 92.278236,59.161285 109.653580,46.843266 
	C127.597076,34.122456 146.936462,23.900864 167.514008,16.336493 
	C185.363708,9.774889 203.754654,4.860092 222.814392,2.960800 
	C226.900818,2.553593 230.939392,1.666194 235.000000,1.000001 
	C249.354233,1.000000 263.708466,1.000000 278.691803,1.403169 
	C287.386810,2.868182 295.466888,3.833062 303.515869,5.010367 
	C326.132538,8.318448 347.479340,15.792862 367.993286,25.579300 
	C388.506256,35.365265 407.346924,47.759132 424.474915,62.837341 
	C440.460541,76.909821 454.855286,92.329544 467.179138,109.685547 
	C479.909088,127.613396 490.112823,146.959610 497.673126,167.531784 
	C504.231171,185.376709 509.139893,203.764008 511.039276,222.817932 
	C511.446472,226.903183 512.333801,230.940567 513.000000,235.000000 
M231.574036,129.000000 
	C229.469299,129.000000 227.364563,129.000000 224.872269,129.000000 
	C224.872269,161.260422 224.872269,192.997269 224.872269,225.127380 
	C192.739990,225.127380 161.003113,225.127380 129.264130,225.127380 
	C129.264130,246.595642 129.264130,267.665222 129.264130,289.130280 
	C161.262924,289.130280 192.999802,289.130280 225.129944,289.130280 
	C225.129944,321.262604 225.129944,352.999451 225.129944,384.734558 
	C246.598236,384.734558 267.667816,384.734558 289.132874,384.734558 
	C289.132874,352.734467 289.132874,320.997589 289.132874,288.867462 
	C321.265198,288.867462 353.002075,288.867462 384.733276,288.867462 
	C384.733276,267.399139 384.733276,246.329544 384.733276,224.864563 
	C352.731873,224.864563 320.994995,224.864563 288.864899,224.864563 
	C288.864899,192.732193 288.864899,160.995316 288.864899,129.000000 
	C269.832520,129.000000 251.196594,129.000000 231.574036,129.000000 
z"/>
<path fill="#FFFFFF" opacity="1.000000" stroke="none" 
	d="
M513.000000,234.531342 
	C512.333801,230.940567 511.446472,226.903183 511.039276,222.817932 
	C509.139893,203.764008 504.231171,185.376709 497.673126,167.531784 
	C490.112823,146.959610 479.909088,127.613396 467.179138,109.685547 
	C454.855286,92.329544 440.460541,76.909821 424.474915,62.837341 
	C407.346924,47.759132 388.506256,35.365265 367.993286,25.579300 
	C347.479340,15.792862 326.132538,8.318448 303.515869,5.010367 
	C295.466888,3.833062 287.386810,2.868182 279.160461,1.403169 
	C356.927032,1.000000 434.854095,1.000000 513.000000,1.000000 
	C513.000000,78.687424 513.000000,156.375061 513.000000,234.531342 
z"/>
<path fill="#FFFFFF" opacity="1.000000" stroke="none" 
	d="
M279.468658,513.000000 
	C283.059357,512.333801 287.096680,511.446381 291.181854,511.039215 
	C310.235809,509.140045 328.623047,504.231018 346.467987,497.673157 
	C367.040192,490.113037 386.386383,479.909180 404.314209,467.179321 
	C421.670227,454.855469 437.089996,440.460754 451.162476,424.475128 
	C466.240601,407.347076 478.634644,388.506592 488.420624,367.993591 
	C498.207062,347.479614 505.681305,326.132812 508.989563,303.516205 
	C510.166931,295.467133 511.131897,287.386993 512.596924,279.160522 
	C513.000000,356.927032 513.000000,434.854095 513.000000,513.000000 
	C435.312561,513.000000 357.624939,513.000000 279.468658,513.000000 
z"/>
<path fill="#FFFFFF" opacity="1.000000" stroke="none" 
	d="
M234.531342,1.000001 
	C230.939392,1.666194 226.900818,2.553593 222.814392,2.960800 
	C203.754654,4.860092 185.363708,9.774889 167.514008,16.336493 
	C146.936462,23.900864 127.597076,34.122456 109.653580,46.843266 
	C92.278236,59.161285 76.884865,73.591347 62.800152,89.569649 
	C47.705887,106.693237 35.324322,125.557022 25.538239,146.071228 
	C15.750447,166.588989 8.350582,187.960281 4.963478,210.575851 
	C4.054150,216.647400 2.845637,222.674149 1.387233,228.860733 
	C1.000000,153.072006 1.000000,77.144012 1.000000,1.000000 
	C78.687431,1.000000 156.375061,1.000000 234.531342,1.000001 
z"/>
<path fill="#FFFFFF" opacity="1.000000" stroke="none" 
	d="
M1.000000,285.468658 
	C2.331637,291.198303 3.483040,297.442047 5.031125,303.585815 
	C8.640173,317.908783 11.477317,332.524536 16.388962,346.397919 
	C23.700695,367.050598 34.059006,386.359528 46.796356,404.286987 
	C59.125938,421.640533 73.512993,437.073181 89.505157,451.144928 
	C106.639000,466.221222 125.477585,478.622406 145.993851,488.412964 
	C166.511169,498.204041 187.860901,505.677155 210.480240,508.989288 
	C218.530334,510.168030 226.611923,511.131775 234.839569,512.596802 
	C157.073914,513.000000 79.147827,513.000000 1.000000,513.000000 
	C1.000000,437.312592 1.000000,361.624939 1.000000,285.468658 
z"/>
<path fill="#FFFFFF" opacity="1.000000" stroke="none" 
	d="
M232.067352,129.000000 
	C251.196594,129.000000 269.832520,129.000000 288.864899,129.000000 
	C288.864899,160.995316 288.864899,192.732193 288.864899,224.864563 
	C320.994995,224.864563 352.731873,224.864563 384.733276,224.864563 
	C384.733276,246.329544 384.733276,267.399139 384.733276,288.867462 
	C353.002075,288.867462 321.265198,288.867462 289.132874,288.867462 
	C289.132874,320.997589 289.132874,352.734467 289.132874,384.734558 
	C267.667816,384.734558 246.598236,384.734558 225.129944,384.734558 
	C225.129944,352.999451 225.129944,321.262604 225.129944,289.130280 
	C192.999802,289.130280 161.262924,289.130280 129.264130,289.130280 
	C129.264130,267.665222 129.264130,246.595642 129.264130,225.127380 
	C161.003113,225.127380 192.739990,225.127380 224.872269,225.127380 
	C224.872269,192.997269 224.872269,161.260422 224.872269,129.000000 
	C227.364563,129.000000 229.469299,129.000000 232.067352,129.000000 
z"/>
</svg>