<?xml version="1.0" encoding="UTF-8"?>
<svg version="1.1" xmlns="http://www.w3.org/2000/svg" width="512" height="512">
<path d="M0 0 C93.39 0 186.78 0 283 0 C283.33 12.87 283.66 25.74 284 39 C287.68623654 46.14580122 287.68623654 46.14580122 294 49 C296.84143999 49.28463469 299.46002086 49.42097934 302.296875 49.40405273 C303.10741333 49.41091599 303.91795166 49.41777924 304.75305176 49.42485046 C307.41888189 49.44307675 310.08412124 49.43928746 312.75 49.43359375 C314.6103535 49.43815713 316.47070531 49.44346318 318.33105469 49.44947815 C322.22467917 49.45840073 326.11809845 49.45599534 330.01171875 49.44604492 C334.99520104 49.43454865 339.97797543 49.4547811 344.96136475 49.48396206 C348.80131509 49.5023278 352.64109585 49.50203099 356.4810791 49.49632454 C358.31824742 49.49617141 360.15542729 49.50220869 361.99255371 49.51461601 C364.56319336 49.52953375 367.13252561 49.5188444 369.703125 49.50170898 C370.83482117 49.51621094 370.83482117 49.51621094 371.98937988 49.53100586 C377.13175271 49.45941294 380.0269255 48.2199617 384 45 C387.69268301 40.64694846 387.47111109 36.21231492 387.51171875 30.76171875 C387.53667419 29.58977966 387.53667419 29.58977966 387.56213379 28.39416504 C387.61970828 25.4922136 387.65212974 22.589807 387.6875 19.6875 C387.790625 13.190625 387.89375 6.69375 388 0 C413.74 0 439.48 0 466 0 C463.99195373 16.06437015 461.95306677 32.09582404 459.63037109 48.11279297 C459.29100466 50.47130774 458.9577558 52.83071019 458.63037109 55.19091797 C455.1069023 80.56616652 455.1069023 80.56616652 450 92 C449.68546875 92.73686035 449.3709375 93.4737207 449.046875 94.23291016 C443.20211451 107.25469271 433.99617257 119.15634871 422 127 C422.70576172 128.39412109 422.70576172 128.39412109 423.42578125 129.81640625 C424.05479682 131.0650491 424.68369688 132.31375015 425.3125 133.5625 C425.7755957 134.47612305 425.7755957 134.47612305 426.24804688 135.40820312 C432.73540556 148.31463251 432.73540556 148.31463251 431 156 C429.13006111 160.11386557 426.68500098 162.42049931 423 165 C417.97141801 166.676194 413.65969589 166.60642735 408.75 164.8125 C403.1784027 161.14031087 400.38361167 155.39843072 397.25 149.6875 C396.83878906 148.94693359 396.42757813 148.20636719 396.00390625 147.44335938 C394.99845215 145.63120373 393.998647 143.8159158 393 142 C392.27992516 142.14142858 391.55985031 142.28285717 390.81795502 142.42857146 C383.27404172 143.81154179 376.05874606 144.28478805 368.40039062 144.25396729 C366.58461391 144.25864726 366.58461391 144.25864726 364.73215485 144.26342177 C361.40748737 144.26997031 358.0830492 144.26767949 354.75839615 144.26144934 C351.15915427 144.25689448 347.55993137 144.26392354 343.96069336 144.26940918 C336.92374382 144.27827265 329.88683711 144.2763948 322.84988594 144.2705839 C317.12754085 144.26605538 311.4052077 144.26545964 305.68286133 144.26763153 C304.86644495 144.267938 304.05002858 144.26824446 303.20887232 144.26856022 C301.5500075 144.26919971 299.89114268 144.26984814 298.23227787 144.2705054 C282.70040071 144.27619977 267.16854721 144.26966484 251.63667393 144.25890467 C238.32808328 144.24996997 225.01952752 144.25152226 211.7109375 144.26074219 C196.23221004 144.27146062 180.75350329 144.27565053 165.27477264 144.26951766 C163.62222799 144.2688806 161.96968333 144.26825186 160.31713867 144.26763153 C159.50419043 144.26732298 158.69124219 144.26701443 157.85365915 144.26669653 C152.14242459 144.2649743 146.43120322 144.26787447 140.7199707 144.27259064 C133.7538304 144.27821697 126.78773514 144.27664631 119.82159996 144.26602915 C116.27173765 144.26079594 112.72195027 144.25867528 109.17208862 144.26532745 C105.31455376 144.27244652 101.45713988 144.26390966 97.59960938 144.25396729 C96.49102821 144.25842873 95.38244705 144.26289017 94.24027252 144.26748681 C86.98619152 144.23137146 80.11654383 143.39774735 73 142 C72.70037354 142.57133667 72.40074707 143.14267334 72.09204102 143.73132324 C70.86752235 146.05796466 69.62097045 148.37227984 68.375 150.6875 C67.94832031 151.50412109 67.52164063 152.32074219 67.08203125 153.16210938 C63.83843617 159.14097493 60.72619934 163.75793355 54 166 C48.38124276 166.3684431 44.84288621 166.19190228 40 163 C36.73224341 159.6414724 34.98890692 156.58493208 34 152 C34.3087918 145.41010219 36.17935736 141.09539672 39.5625 135.5 C39.98724609 134.77296875 40.41199219 134.0459375 40.84960938 133.296875 C41.88761783 131.52409652 42.94212158 129.76099357 44 128 C41.37354001 125.32448898 38.79560419 122.7699199 35.8125 120.5 C27.45276857 113.30083866 21.78694873 104.2773255 17.0625 94.4375 C16.69721191 93.68315674 16.33192383 92.92881348 15.95556641 92.15161133 C10.79940795 80.90367201 9.20872866 68.76501572 7.51953125 56.62109375 C7.30010952 55.07594411 7.08018539 53.53086573 6.85978699 51.9858551 C6.40307811 48.77519898 5.95045911 45.56400471 5.5012207 42.35229492 C4.92536033 38.2357698 4.34204426 34.12034555 3.75607777 30.00524807 C3.30384032 26.8271336 2.85398122 23.64868656 2.4050045 20.47010994 C2.19048365 18.95139163 1.97557287 17.43272834 1.76026344 15.91412163 C1.46142955 13.80169213 1.16544035 11.68888459 0.87036133 9.57592773 C0.70176102 8.37524155 0.53316071 7.17455536 0.35945129 5.93748474 C0 3 0 3 0 0 Z " fill="#000000" transform="translate(23,294)"/>
<path d="M0 0 C1.12829202 -0.00256327 2.25658404 -0.00512655 3.41906673 -0.0077675 C7.17160126 -0.01267953 10.92372675 0.00374523 14.67622375 0.02018738 C17.37732849 0.02103421 20.07840875 0.02068928 22.7795105 0.01885986 C28.58032087 0.0172924 34.38102943 0.02664618 40.18181419 0.04357338 C48.56859453 0.06803072 56.95532601 0.07577551 65.34213815 0.07953735 C78.95157474 0.08609131 92.56095717 0.10602373 106.17036438 0.13444519 C119.38487987 0.16201315 132.5993806 0.18323331 145.81391907 0.19596863 C146.6294659 0.1967568 147.44501273 0.19754497 148.2852731 0.19835702 C152.37693155 0.20227234 156.46859011 0.20606342 160.56024873 0.20979273 C194.46524029 0.24085575 228.37016004 0.29449258 262.27510071 0.36076355 C262.27510071 14.22076355 262.27510071 28.08076355 262.27510071 42.36076355 C161.29510071 42.36076355 60.31510071 42.36076355 -43.72489929 42.36076355 C-43.72489929 27.36517164 -42.99106679 20.85822261 -33.07646179 10.55607605 C-23.64569419 1.75193753 -12.58150458 -0.10632053 0 0 Z " fill="#000000" transform="translate(43.72489929199219,222.6392364501953)"/>
<path d="M0 0 C15.51 0 31.02 0 47 0 C47 30.36 47 60.72 47 92 C31.49 92 15.98 92 0 92 C0 61.64 0 31.28 0 0 Z " fill="#000000" transform="translate(335,223)"/>
<path d="M0 0 C7.72255422 6.61323704 12.52002124 15.43046098 13.4609375 25.55078125 C13.58554342 37.3509623 11.28708447 46.19500063 3.125 54.9375 C-5.36486564 62.91476998 -13.23033665 65.48160476 -24.78149414 65.42773438 C-34.27726603 65.06246955 -42.35087138 61.40133959 -49.1953125 54.8125 C-56.36777973 46.80602496 -59.5078689 37.38658908 -59.16015625 26.66796875 C-58.08012583 16.32630756 -53.43554762 7.6986498 -45.96875 0.54296875 C-32.50321551 -9.78228251 -13.78259573 -9.76756359 0 0 Z " fill="#000000" transform="translate(215.875,138.0625)"/>
<path d="M0 0 C16.69863429 -0.16043524 16.69863429 -0.16043524 23.89257812 -0.1953125 C28.77500092 -0.21909656 33.65711977 -0.24703472 38.53930664 -0.30175781 C42.48158377 -0.3456622 46.42353436 -0.36922956 50.36603737 -0.37950897 C51.85974064 -0.38682134 53.35342885 -0.40109716 54.84699059 -0.42292023 C69.39881709 -0.62681842 81.19276432 1.59144577 91.8984375 11.8125 C100.79504422 21.12202939 101 28.6981759 101 42 C67.67 42 34.34 42 0 42 C0 28.14 0 14.28 0 0 Z " fill="#000000" transform="translate(411,223)"/>
<path d="M0 0 C7.40954088 6.10107986 10.50674195 13.82618107 11.5625 23.20703125 C11.91627798 32.17309197 9.18318817 39.30037246 3.6875 46.375 C-2.41125584 52.59386263 -11.15994312 56.45835458 -19.875 56.8125 C-30.42066325 56.22872221 -37.66618968 51.91571236 -45.0625 44.6875 C-50.01747951 38.23762837 -52.05346687 30.16121081 -51.6875 22.1328125 C-50.41764913 12.79411757 -46.50130146 5.49469766 -39.3125 -0.625 C-26.37861918 -8.85386177 -12.78996065 -8.59172929 0 0 Z " fill="#000000" transform="translate(125.3125,116.625)"/>
<path d="M0 0 C7.42105602 4.3138659 11.74837 9.48290217 14.6796875 17.5625 C16.60573692 25.52638974 16.60355093 34.08049512 12.69140625 41.4140625 C7.50473419 49.38645457 1.57421943 54.2609918 -7.640625 57.046875 C-16.66399565 58.82312906 -25.24969449 56.96618695 -32.921875 51.9296875 C-38.75808877 47.21244704 -43.23767814 40.92063005 -44.625 33.4375 C-45.40618933 23.05669559 -44.08892435 14.56460346 -37.5078125 6.296875 C-27.595332 -3.49221363 -12.54430086 -5.91801396 0 0 Z " fill="#000000" transform="translate(180.625,55.5625)"/>
</svg>
