<?xml version="1.0" standalone="no"?>
<!DOCTYPE svg PUBLIC "-//W3C//DTD SVG 20010904//EN"
 "http://www.w3.org/TR/2001/REC-SVG-20010904/DTD/svg10.dtd">
<svg version="1.0" xmlns="http://www.w3.org/2000/svg"
 width="512.000000pt" height="512.000000pt" viewBox="0 0 512.000000 512.000000"
 preserveAspectRatio="xMidYMid meet">

<g transform="translate(0.000000,512.000000) scale(0.100000,-0.100000)"
fill="#000000" stroke="none">
<path d="M2465 4726 c-144 -36 -243 -138 -274 -284 -6 -29 -11 -100 -11 -159
0 -89 2 -104 15 -99 147 56 583 56 730 0 13 -5 15 10 15 99 0 122 -13 192 -47
260 -74 148 -256 226 -428 183z"/>
<path d="M2425 4060 c-496 -56 -883 -356 -1043 -812 -68 -193 -75 -252 -82
-783 -7 -540 -5 -526 -91 -698 -67 -134 -118 -207 -298 -421 -75 -89 -88 -174
-41 -266 24 -46 55 -74 110 -99 45 -20 56 -21 1575 -20 1252 0 1537 2 1568 13
94 34 152 117 151 216 -1 70 -19 104 -113 213 -156 181 -260 351 -312 512 -22
67 -23 88 -30 555 -8 534 -11 569 -79 771 -121 361 -397 635 -765 758 -163 54
-385 79 -550 61z"/>
<path d="M1960 794 c0 -26 78 -143 137 -204 189 -199 461 -260 720 -160 152
58 298 197 361 343 l12 27 -615 0 c-338 0 -615 -3 -615 -6z"/>
</g>
</svg>
