<?xml version="1.0" encoding="UTF-8"?>
<svg version="1.1" xmlns="http://www.w3.org/2000/svg" width="512" height="512">
<path d="M0 0 C4.8846525 2.26787438 7.73212562 5.1153475 10 10 C11.13564303 18.87484045 9.20659871 25.30319093 5.13476562 33.09277344 C4.60941978 34.14491154 4.08407394 35.19704964 3.54280853 36.28107071 C1.85278554 39.65222737 0.13054595 43.00564314 -1.59375 46.359375 C-2.64833871 48.45088797 -3.70075755 50.54349648 -4.75097656 52.63720703 C-8.64108386 60.35475081 -12.57304613 68.0511397 -16.5 75.75 C-29.6175 101.61375 -29.6175 101.61375 -43 128 C34.22 128 111.44 128 191 128 C173.58391673 93.64238518 173.58391673 93.64238518 156.11523438 59.31152344 C152.75097656 52.63720703 152.75097656 52.63720703 151.17883301 49.50299072 C150.0835146 47.33070059 148.97872893 45.16316748 147.86633301 42.99957275 C146.17650465 39.70827733 144.51797885 36.40281283 142.86523438 33.09277344 C142.12044956 31.66796976 142.12044956 31.66796976 141.36061859 30.21438217 C138.04543297 23.46086957 137.0393731 17.50712173 138 10 C140.26787438 5.1153475 143.1153475 2.26787438 148 0 C153.52640229 -0.74393877 158.29163477 -0.74546846 163.4375 1.5 C169.57094799 7.4838517 173.02402132 15.75957078 176.80004883 23.34130859 C177.35673248 24.45117126 177.91341614 25.56103394 178.48696899 26.70452881 C179.99996492 29.72326891 181.50938271 32.74374267 183.01692796 35.76520491 C184.5986977 38.9338358 186.18439542 42.10050047 187.76945496 45.26748657 C190.42592147 50.5767927 193.07903013 55.88776659 195.73022461 61.19970703 C198.79685473 67.34388752 201.86927924 73.48514432 204.94466954 79.62494409 C207.58888089 84.90430292 210.22998344 90.18520815 212.86847323 95.4674288 C214.44287919 98.61936049 216.01836475 101.77073989 217.59665871 104.92072678 C219.35132311 108.42322661 221.09946259 111.92895894 222.84692383 115.43505859 C223.3720607 116.48128387 223.89719757 117.52750916 224.43824768 118.60543823 C224.91062866 119.55583984 225.38300964 120.50624146 225.8697052 121.48544312 C226.28354871 122.31388418 226.69739222 123.14232525 227.12377644 123.99587059 C228 126 228 126 228 128 C229.20160767 127.9685791 229.20160767 127.9685791 230.42749023 127.93652344 C234.09736309 127.852786 237.76703416 127.80115632 241.4375 127.75 C242.69755859 127.71648437 243.95761719 127.68296875 245.25585938 127.6484375 C256.11372428 127.53503943 263.23622717 129.65551412 271.2109375 137.07421875 C278.39538417 144.80769519 280.34749387 152.73442045 280.18893433 163.1192627 C279.86801834 169.71092171 278.99407876 176.20765289 278.06640625 182.734375 C277.86629882 184.18921174 277.6669267 185.64414979 277.46824646 187.09918213 C277.05448869 190.11512944 276.63464733 193.13013818 276.2097168 196.14453125 C275.66491246 200.010175 275.13173247 203.87731096 274.60249424 207.74511337 C274.19291964 210.73429641 273.77942982 213.72292626 273.3645153 216.71137238 C273.16643118 218.13865281 272.96908554 219.56603594 272.77249336 220.99352264 C272.49858325 222.97503629 272.21927535 224.95580155 271.93969727 226.93652344 C271.78203384 228.06233826 271.62437042 229.18815308 271.46192932 230.3480835 C271 233 271 233 270 235 C265.88303095 234.31383849 261.9857871 233.1140966 258.0090332 231.87963867 C225.18929419 221.69818845 190.83192663 223.29842748 159.89453125 239.03515625 C150.89109827 243.82382833 142.86347591 249.53398243 135 256 C134.30261719 256.55558594 133.60523438 257.11117188 132.88671875 257.68359375 C110.69434765 275.84098828 96.06227455 305.89249802 92.29736328 334.01025391 C89.59432644 361.18709228 93.30127427 386.86161 105.61743164 411.27685547 C106.06453995 412.16500946 106.51164825 413.05316345 106.9723053 413.9682312 C107.48101418 414.97395676 107.48101418 414.97395676 108 416 C85.65089098 416.09358525 63.30181443 416.16404867 40.95254898 416.20724869 C30.57458177 416.22784346 20.19673655 416.25590493 9.81884766 416.30175781 C0.76981863 416.34172018 -8.279122 416.36745522 -17.32823682 416.37635398 C-22.11638413 416.38155284 -26.90427865 416.39370736 -31.69234467 416.42292023 C-36.20674252 416.45023808 -40.72078544 416.45841218 -45.2352581 416.45243073 C-46.88472109 416.45352369 -48.53419697 416.46137956 -50.18358803 416.4768219 C-66.40836008 416.62116799 -78.47483384 413.04374293 -90.625 402 C-98.75334812 393.37515592 -102.13320206 384.20901835 -103.81933594 372.7331543 C-104.06388079 371.13797108 -104.06388079 371.13797108 -104.31336594 369.51056194 C-106.93440347 352.15211036 -109.27716873 334.75065028 -111.65573215 317.35773683 C-112.08208577 314.24057322 -112.50907858 311.12349777 -112.93624115 308.00644493 C-114.27805242 298.21341752 -115.61750006 288.42007114 -116.95353436 278.6262539 C-118.48642389 267.3896273 -120.02741549 256.15415031 -121.57525563 244.91957361 C-122.77941001 236.17587594 -123.97632293 227.43120574 -125.16782451 218.68577498 C-125.87641183 213.48605145 -126.58797186 208.28677839 -127.30716705 203.08851051 C-127.98196528 198.20972598 -128.64770197 193.32978688 -129.30673599 188.44884872 C-129.54857204 186.66915892 -129.79355108 184.88989262 -130.0420723 183.11112404 C-134.23135902 153.08144728 -134.23135902 153.08144728 -127 141 C-121.8891366 134.35260837 -115.85970373 130.61990124 -108 128 C-105.86205475 127.9166196 -103.72157991 127.89266253 -101.58203125 127.90234375 C-99.70161133 127.90717773 -99.70161133 127.90717773 -97.78320312 127.91210938 C-95.81770508 127.92467773 -95.81770508 127.92467773 -93.8125 127.9375 C-92.47721519 127.94251683 -91.14192859 127.94707941 -89.80664062 127.95117188 C-86.53771527 127.96297305 -83.26888009 127.97943703 -80 128 C-79.78253113 127.24203629 -79.56506226 126.48407257 -79.34100342 125.70314026 C-77.46383244 120.51938956 -75.00047357 115.68060001 -72.54394531 110.74975586 C-71.98758392 109.62549698 -71.43122253 108.5012381 -70.85800171 107.34291077 C-69.33628073 104.27111376 -67.81089402 101.20120395 -66.28291416 98.13251948 C-65.32708905 96.21276307 -64.37209556 94.29259507 -63.41732025 92.37231636 C-60.42583013 86.35665923 -57.43084079 80.34276205 -54.43116117 74.33118433 C-50.97531941 67.40523743 -47.53142188 60.47352198 -44.09762883 53.53661817 C-41.43734048 48.16421335 -38.76628281 42.79725103 -36.0871017 37.43424326 C-34.48942361 34.23549507 -32.89637792 31.03463713 -31.31461334 27.82798576 C-29.54981026 24.25111224 -27.76274724 20.68562996 -25.97363281 17.12084961 C-25.45600372 16.06356659 -24.93837463 15.00628357 -24.40505981 13.91696167 C-18.65192132 2.55659464 -12.87640167 -1.19662895 0 0 Z " fill="#000000" transform="translate(182,48)"/>
<path d="M0 0 C19.41513413 15.83036047 34.05409201 37.67987498 37 63 C39.00706443 91.38316441 34.11130766 116.2402984 15.84375 138.64453125 C-0.57892148 157.46699451 -22.83614019 171.43272251 -48.21777344 173.22753906 C-76.8329536 174.49950262 -101.20094475 168.80835389 -123.1875 149.625 C-141.72962913 132.23989973 -154.23970686 110.00534464 -155.3828125 84.2890625 C-156.09445376 55.78869783 -149.21659255 31.57486407 -129.3359375 10.37109375 C-94.83017582 -24.65398542 -39.47352935 -30.18232772 0 0 Z M-70 34 C-74.93964571 40.27468509 -75.15272514 45.54619716 -75.0625 53.3125 C-75.05798828 54.05306641 -75.05347656 54.79363281 -75.04882812 55.55664062 C-75.03712175 57.37112899 -75.01918898 59.18557534 -75 61 C-76.05058594 60.96519531 -77.10117187 60.93039062 -78.18359375 60.89453125 C-90.7181143 60.21403387 -90.7181143 60.21403387 -101.61328125 65.46484375 C-105.70232185 70.17587926 -106.35578775 73.41203334 -106.27734375 79.4609375 C-105.86623556 83.22460402 -104.5171364 85.21790187 -102 88 C-95.72531491 92.93964571 -90.45380284 93.15272514 -82.6875 93.0625 C-81.94693359 93.05798828 -81.20636719 93.05347656 -80.44335938 93.04882812 C-78.62887101 93.03712175 -76.81442466 93.01918898 -75 93 C-75.03480469 94.05058594 -75.06960938 95.10117187 -75.10546875 96.18359375 C-75.78596613 108.7181143 -75.78596613 108.7181143 -70.53515625 119.61328125 C-65.82412074 123.70232185 -62.58796666 124.35578775 -56.5390625 124.27734375 C-52.77539598 123.86623556 -50.78209813 122.5171364 -48 120 C-43.06035429 113.72531491 -42.84727486 108.45380284 -42.9375 100.6875 C-42.94201172 99.94693359 -42.94652344 99.20636719 -42.95117188 98.44335938 C-42.96287825 96.62887101 -42.98081102 94.81442466 -43 93 C-41.94941406 93.03480469 -40.89882813 93.06960938 -39.81640625 93.10546875 C-27.2818857 93.78596613 -27.2818857 93.78596613 -16.38671875 88.53515625 C-12.29767815 83.82412074 -11.64421225 80.58796666 -11.72265625 74.5390625 C-12.13376444 70.77539598 -13.4828636 68.78209813 -16 66 C-22.27468509 61.06035429 -27.54619716 60.84727486 -35.3125 60.9375 C-36.05306641 60.94201172 -36.79363281 60.94652344 -37.55664062 60.95117188 C-39.37112899 60.96287825 -41.18557534 60.98081102 -43 61 C-42.96519531 59.94941406 -42.93039062 58.89882813 -42.89453125 57.81640625 C-42.21403387 45.2818857 -42.21403387 45.2818857 -47.46484375 34.38671875 C-52.17587926 30.29767815 -55.41203334 29.64421225 -61.4609375 29.72265625 C-65.22460402 30.13376444 -67.21790187 31.4828636 -70 34 Z " fill="#000000" transform="translate(459,323)"/>
</svg>
