<?xml version="1.0" encoding="UTF-8"?>
<svg version="1.1" xmlns="http://www.w3.org/2000/svg" width="512" height="512">
<path d="M0 0 C14.01228241 10.72132434 23.21762248 24.36400709 26 42 C27.66884341 60.39798098 22.68237204 75.97576822 10.9375 90.1875 C3.63551432 97.92561111 -5.82341255 103.87094833 -16.01171875 106.953125 C-18.87313044 108.4597229 -19.67641428 110.07268312 -21 113 C-21.57154439 116.34498399 -21.57154439 116.34498399 -21.6875 119.8125 C-21.78611328 121.55466797 -21.78611328 121.55466797 -21.88671875 123.33203125 C-21.92410156 124.21246094 -21.96148437 125.09289062 -22 126 C-21.31550781 126.22816406 -20.63101563 126.45632812 -19.92578125 126.69140625 C-16.30326302 128.31162469 -13.32600676 130.55005357 -10.1875 132.9375 C-4.96555597 136.83806683 0.30163606 140.64139959 5.6875 144.3125 C11.73572426 148.44078285 17.75385801 152.60886931 23.75 156.8125 C24.59006592 157.40135986 25.43013184 157.99021973 26.2956543 158.59692383 C28.00907579 159.79832583 29.72237271 160.9999055 31.43554688 162.20166016 C35.62173125 165.13724984 39.81099592 168.06843609 44 171 C45.66668197 172.16664481 47.33334862 173.3333115 49 174.5 C49.825 175.0775 50.65 175.655 51.5 176.25 C80.66666667 196.66666667 109.83333333 217.08333333 139 237.5 C139.82588623 238.07806396 140.65177246 238.65612793 141.50268555 239.25170898 C143.16061476 240.41237289 144.81833146 241.5733404 146.47583008 242.73461914 C150.77444072 245.74571912 155.07719509 248.7506292 159.38671875 251.74609375 C160.27423828 252.36419922 161.16175781 252.98230469 162.07617188 253.61914062 C163.7544731 254.78780064 165.43405585 255.95462356 167.11523438 257.11914062 C188.46351573 272.00041123 188.46351573 272.00041123 192 283 C193.41496538 293.56288107 192.26036632 302.14387203 186 311 C180.82086424 317.22504395 173.41878067 320.54222393 165.44186401 321.36861515 C161.13201432 321.51549809 156.83882613 321.53396368 152.52734375 321.50793457 C150.85941525 321.5125485 149.19149082 321.51890471 147.52357483 321.52684355 C142.95912705 321.54349245 138.39501516 321.53531076 133.83056641 321.52289867 C128.90069337 321.5138323 123.97087728 321.52782579 119.04101562 321.53881836 C109.39087693 321.5565912 99.74086277 321.55276908 90.09071922 321.5411678 C82.24682977 321.5321289 74.40297519 321.53091145 66.55908203 321.53526306 C65.44207822 321.53587599 64.32507441 321.53648893 63.17422199 321.53712043 C60.90494663 321.53839935 58.63567129 321.53969621 56.36639595 321.5410108 C35.09468644 321.55241298 13.82304592 321.53930855 -7.44865227 321.51780933 C-25.69496939 321.49993869 -43.94118471 321.5030429 -62.1875 321.52148438 C-83.38385188 321.54289745 -104.58014333 321.55131438 -125.77650452 321.53903532 C-128.03736368 321.53776114 -130.29822285 321.53650366 -132.55908203 321.53526306 C-134.22759736 321.53433741 -134.22759736 321.53433741 -135.92982006 321.53339306 C-143.76296122 321.52994147 -151.596064 321.53576438 -159.42919922 321.54518127 C-168.97708628 321.55640747 -178.52484183 321.55334808 -188.07271385 321.5320583 C-192.94283663 321.52155631 -197.81274024 321.51741161 -202.68286133 321.53065491 C-207.14389168 321.54260217 -211.60450036 321.53597783 -216.06549263 321.5147447 C-217.6763931 321.51028852 -219.28732943 321.51252273 -220.89820671 321.52224785 C-231.82788094 321.58315375 -242.09592168 320.85377549 -250.39453125 312.9296875 C-256.98656046 305.00642125 -259.14701431 296.85407431 -258.515625 286.77734375 C-257.17247296 276.93773755 -251.68524193 270.36108432 -243.97485352 264.4465332 C-241.77772888 262.90481169 -239.5540703 261.41382193 -237.3125 259.9375 C-235.62298278 258.80314774 -233.93420476 257.66769388 -232.24609375 256.53125 C-231.38097168 255.95117188 -230.51584961 255.37109375 -229.62451172 254.7734375 C-225.33966678 251.87807809 -221.10686286 248.90954234 -216.875 245.9375 C-216.0394458 245.35154053 -215.2038916 244.76558105 -214.34301758 244.16186523 C-208.36246567 239.96458823 -202.39301006 235.75164717 -196.42651367 231.53442383 C-188.48548182 225.9241436 -180.51643908 220.35396218 -172.54833984 214.78222656 C-168.3645694 211.85623267 -164.18235476 208.9280169 -160 206 C-158.33334098 204.83332241 -156.66667431 203.66665575 -155 202.5 C-154.175 201.9225 -153.35 201.345 -152.5 200.75 C-85 153.5 -85 153.5 -82.49609375 151.74731445 C-80.84238665 150.58968713 -79.18874004 149.43197339 -77.53515625 148.27416992 C-73.17072029 145.21846145 -68.80500404 142.16460327 -64.4375 139.11328125 C-63.52742187 138.47712891 -62.61734375 137.84097656 -61.6796875 137.18554688 C-59.93528256 135.96624342 -58.19050981 134.74746594 -56.4453125 133.52929688 C-55.65898437 132.97951172 -54.87265625 132.42972656 -54.0625 131.86328125 C-53.37285156 131.38157471 -52.68320313 130.89986816 -51.97265625 130.40356445 C-50.57913755 129.4120621 -49.2139831 128.3801103 -47.87109375 127.32104492 C-46 126 -46 126 -44 126 C-44.04640625 124.81664062 -44.0928125 123.63328125 -44.140625 122.4140625 C-44.48644678 109.98814668 -43.56861649 101.35841173 -34.9765625 91.7890625 C-30.49186338 87.72978938 -25.7289192 85.35293425 -20.125 83.1875 C-9.39026416 78.75364859 -3.53122342 72.74122797 1 62 C4.15751469 52.52745592 3.4468646 42.59444592 -0.5859375 33.484375 C-6.24776785 23.53707085 -14.27432304 17.80892762 -25.125 14.6875 C-34.8230978 12.96686974 -43.7176912 14.45534772 -52.40234375 19.35546875 C-54.41330932 20.79518115 -56.20730635 22.29755637 -58 24 C-58.55300781 24.52464844 -59.10601562 25.04929688 -59.67578125 25.58984375 C-65.69054925 31.93296137 -67.87818838 39.2171963 -68.9375 47.75 C-69.68082117 53.42870584 -70.74870945 56.17383851 -75 60 C-78.06429776 61.53214888 -80.6165642 61.22938548 -84 61 C-86.97860036 59.71378621 -88.64365978 58.393203 -90.8125 56 C-94.56698477 46.51498583 -91.25241433 35.49979759 -87.55859375 26.48046875 C-80.12607924 10.56350613 -67.87675744 -0.94097716 -51.33203125 -6.97265625 C-34.15732938 -12.0658437 -15.09090698 -9.63166414 0 0 Z M-34 157 C-36.3553143 158.50300212 -38.49239365 160.03694519 -40.6875 161.75 C-42.05049884 162.78204387 -43.41513342 163.81193039 -44.78125 164.83984375 C-45.4825 165.3694873 -46.18375 165.89913086 -46.90625 166.44482422 C-50.10713184 168.8223449 -53.39038527 171.07126138 -56.6875 173.3125 C-62.73628523 177.43995013 -68.75386967 181.60887749 -74.75 185.8125 C-75.59006592 186.40135986 -76.43013184 186.99021973 -77.2956543 187.59692383 C-79.00907579 188.79832583 -80.72237271 189.9999055 -82.43554688 191.20166016 C-86.62173128 194.13724987 -90.81101509 197.06840866 -95 200 C-96.66276803 201.16405163 -98.32552843 202.32811414 -99.98828125 203.4921875 C-103.36003531 205.85248124 -106.7325041 208.2117491 -110.10546875 210.5703125 C-117.91438668 216.03176431 -125.7184538 221.49959932 -133.5 227 C-142.1308807 233.10075439 -150.78989054 239.16098513 -159.45166016 245.21777344 C-162.80410623 247.56236592 -166.15553954 249.90840328 -169.50683594 252.25463867 C-171.17012502 253.41903876 -172.83353667 254.58326378 -174.49707031 255.74731445 C-178.67861529 258.67349721 -182.85848794 261.60201624 -187.03515625 264.53515625 C-188.71083414 265.7110848 -190.38661483 266.88686688 -192.0625 268.0625 C-192.87557617 268.63315186 -193.68865234 269.20380371 -194.52636719 269.79174805 C-198.8250213 272.80174375 -203.14004013 275.78488267 -207.48046875 278.734375 C-208.36404053 279.33499756 -209.2476123 279.93562012 -210.15795898 280.55444336 C-211.8571216 281.70690356 -213.55838755 282.85627007 -215.26196289 284.00219727 C-216.01598389 284.51322998 -216.77000488 285.0242627 -217.546875 285.55078125 C-218.54992676 286.22620972 -218.54992676 286.22620972 -219.57324219 286.9152832 C-220.04407227 287.27323975 -220.51490234 287.63119629 -221 288 C-221 288.33 -221 288.66 -221 289 C-96.92 289 27.16 289 155 289 C150.77588914 285.62071131 146.5087483 282.4104331 142.125 279.25 C141.34688965 278.68853271 140.5687793 278.12706543 139.76708984 277.54858398 C130.53075338 270.9093435 121.17526189 264.44198828 111.82666016 257.96240234 C107.4803783 254.94500611 103.14569572 251.91114691 98.8125 248.875 C97.9992627 248.30531494 97.18602539 247.73562988 96.34814453 247.14868164 C94.71591323 246.00514526 93.08375146 244.86150962 91.45166016 243.71777344 C87.30213572 240.8103791 83.15097694 237.90531999 79 235 C77.33332569 233.83334425 75.66665902 232.66667759 74 231.5 C72.7625 230.63375 72.7625 230.63375 71.5 229.75 C4 182.5 4 182.5 1.49584961 180.74682617 C-0.15664551 179.5902574 -1.809473 178.43416337 -3.46264648 177.27856445 C-7.84910148 174.21138315 -12.22804617 171.13411086 -16.59765625 168.04296875 C-17.51224609 167.39779297 -18.42683594 166.75261719 -19.36914062 166.08789062 C-21.12907913 164.84610661 -22.88698495 163.60143537 -24.64257812 162.35351562 C-25.43212891 161.79728516 -26.22167969 161.24105469 -27.03515625 160.66796875 C-27.7300415 160.17578857 -28.42492676 159.6836084 -29.14086914 159.17651367 C-31.09748968 157.83411961 -31.09748968 157.83411961 -34 157 Z " fill="#000000" transform="translate(289,100)"/>
</svg>
