<?xml version="1.0" encoding="UTF-8"?>
<svg version="1.1" xmlns="http://www.w3.org/2000/svg" width="512" height="512">
<path d="M0 0 C8.82836861 5.15402423 16.32466588 11.24536219 23.55810547 18.44091797 C24.7735958 19.63587204 26.03031336 20.78859011 27.29296875 21.93359375 C57.81385496 50.23880764 74.97931058 96.97539507 76.9453125 137.8046875 C77.7619241 161.57221581 75.94388871 184.34449164 71.9453125 207.8046875 C84.4019468 188.91882259 87.89039963 169.73330868 90.09936523 147.63867188 C93.16883125 117.33411112 93.16883125 117.33411112 102.1953125 107.3046875 C105.77425435 105.3525374 108.95859225 104.77780501 112.9453125 105.8046875 C118.81192132 109.08196246 120.86991132 115.02627683 123.5703125 120.8671875 C124.09173828 121.97989014 124.61316406 123.09259277 125.15039062 124.23901367 C140.08851874 156.4928166 151.94618147 190.15639666 159.9453125 224.8046875 C160.17798828 225.80822266 160.41066406 226.81175781 160.65039062 227.84570312 C172.05885918 277.86744988 174.54011507 325.44372066 146.9453125 370.8046875 C137.62824548 385.54462724 126.46766839 399.72295194 112.9453125 410.8046875 C112.42727051 411.24039062 111.90922852 411.67609375 111.37548828 412.125 C99.81611434 421.83734115 87.75973195 429.46684431 74.3203125 436.3046875 C73.65717041 436.64338867 72.99402832 436.98208984 72.31079102 437.33105469 C68.88107181 439.02810841 65.74568126 440.2804987 61.9453125 440.8046875 C63.27663986 437.22717192 64.91982222 433.90740323 66.71240234 430.5402832 C75.46496498 413.91613749 79.03597179 396.85602763 79.2578125 378.1171875 C79.27561768 377.15474121 79.29342285 376.19229492 79.31176758 375.20068359 C79.30004299 364.69004489 76.56784003 355.10674263 69.9453125 346.8046875 C62.54588197 339.77974822 53.23865526 335.89088187 44.06005859 331.75732422 C24.03427097 322.73624094 13.6618154 311.34195393 5.70019531 290.88964844 C2.19312096 281.20322705 0.52054151 271.23093897 -0.46484375 261.01171875 C-1.14228184 257.32842955 -2.37743171 254.48194329 -5.0546875 251.8046875 C-11.02653359 251.14693782 -14.04254653 251.85944794 -18.78393555 255.50952148 C-19.75327026 256.30531616 -19.75327026 256.30531616 -20.7421875 257.1171875 C-21.43932861 257.66769775 -22.13646973 258.21820801 -22.85473633 258.78540039 C-24.93678125 260.44033478 -26.99567546 262.12125072 -29.0546875 263.8046875 C-30.11612467 264.64197412 -31.17853179 265.47803353 -32.2421875 266.3125 C-63.05081677 291.26428048 -92.38550492 325.7825614 -96.88916016 366.7253418 C-98.84322297 391.27217514 -94.62348211 415.09787375 -81.59375 436.1796875 C-80.0546875 438.8046875 -80.0546875 438.8046875 -80.0546875 440.8046875 C-84.60580533 440.17694711 -88.38297006 438.3713161 -92.4296875 436.3046875 C-93.480354 435.77065308 -93.480354 435.77065308 -94.55224609 435.22583008 C-117.18734707 423.56262792 -137.54848098 408.18761057 -153.0546875 387.8046875 C-153.79074219 386.88429688 -154.52679688 385.96390625 -155.28515625 385.015625 C-176.99528028 357.2894425 -190.85621755 319.25182467 -188.0546875 283.8046875 C-185.02505792 258.98697184 -174.62947438 234.59451113 -158.0546875 215.8046875 C-157.53583984 215.21574707 -157.01699219 214.62680664 -156.48242188 214.02001953 C-147.79317216 204.25610056 -138.54900884 195.83085296 -128.1796875 187.8671875 C-126.59336998 186.64111652 -125.00742969 185.41455731 -123.421875 184.1875 C-122.66874023 183.60516602 -121.91560547 183.02283203 -121.13964844 182.42285156 C-117.07165712 179.265633 -113.05774549 176.04374237 -109.0546875 172.8046875 C-108.49910156 172.37285156 -107.94351563 171.94101563 -107.37109375 171.49609375 C-103.02895516 168.05621772 -99.61041259 164.01652853 -96.0546875 159.8046875 C-95.301875 158.96292969 -94.5490625 158.12117187 -93.7734375 157.25390625 C-59.03863969 117.51773724 -42.84350491 61.29394587 -40.82495117 9.48974609 C-40.7654126 8.18859863 -40.70587402 6.88745117 -40.64453125 5.546875 C-40.60191162 4.3904248 -40.55929199 3.23397461 -40.51538086 2.04248047 C-39.83464211 -2.74181065 -38.37146717 -6.1148779 -34.6171875 -9.1953125 C-23.20307116 -12.39927498 -9.90187654 -5.50420859 0 0 Z " fill="#000000" transform="translate(265.0546875,40.1953125)"/>
</svg>
