<?xml version="1.0" standalone="no"?>
<!DOCTYPE svg PUBLIC "-//W3C//DTD SVG 20010904//EN"
 "http://www.w3.org/TR/2001/REC-SVG-20010904/DTD/svg10.dtd">
<svg version="1.0" xmlns="http://www.w3.org/2000/svg"
 width="512.000000pt" height="512.000000pt" viewBox="0 0 512.000000 512.000000"
 preserveAspectRatio="xMidYMid meet">

<g transform="translate(0.000000,512.000000) scale(0.100000,-0.100000)"
fill="#000000" stroke="none">
<path d="M4575 4786 c-73 -33 -95 -83 -95 -212 l0 -94 -834 0 c-913 0 -909 0
-1062 -59 -199 -78 -374 -255 -449 -456 -39 -102 -55 -201 -55 -336 0 -89 -3
-119 -12 -119 -7 0 -41 -13 -76 -30 -82 -39 -155 -112 -195 -198 -31 -66 -32
-70 -35 -234 l-4 -168 482 0 482 0 -4 168 c-3 164 -4 168 -35 234 -40 86 -113
159 -195 198 -35 17 -69 30 -75 30 -16 0 -18 182 -3 261 33 173 176 326 349
371 60 15 145 17 893 17 l827 1 3 -349 c3 -335 4 -351 24 -377 39 -53 71 -69
134 -69 63 0 95 16 134 69 21 27 21 37 21 646 0 609 0 619 -21 646 -11 15 -32
37 -46 47 -34 25 -113 32 -153 13z"/>
<path d="M845 2499 c-202 -189 -325 -475 -351 -813 l-7 -84 -40 -6 c-52 -9
-113 -67 -122 -119 -15 -79 23 -155 92 -183 48 -21 3598 -21 3646 0 69 28 107
104 92 183 -9 52 -70 110 -122 119 l-40 6 -7 84 c-26 337 -150 624 -351 813
l-66 61 -1329 0 -1329 0 -66 -61z"/>
<path d="M735 946 c-41 -18 -83 -69 -90 -109 -4 -18 -5 -118 -3 -224 3 -210 5
-218 72 -267 39 -29 133 -29 172 0 68 51 69 53 69 294 0 205 -1 220 -21 246
-11 15 -32 37 -46 47 -33 25 -113 32 -153 13z"/>
<path d="M1695 946 c-41 -18 -83 -69 -90 -109 -4 -18 -5 -118 -3 -224 3 -210
5 -218 72 -267 39 -29 133 -29 172 0 68 51 69 53 69 294 0 205 -1 220 -21 246
-11 15 -32 37 -46 47 -33 25 -113 32 -153 13z"/>
<path d="M2655 946 c-41 -18 -83 -69 -90 -109 -4 -18 -5 -118 -3 -224 3 -210
5 -218 72 -267 39 -29 133 -29 172 0 68 51 69 53 69 294 0 205 -1 220 -21 246
-11 15 -32 37 -46 47 -33 25 -113 32 -153 13z"/>
<path d="M3615 946 c-41 -18 -83 -69 -90 -109 -4 -18 -5 -118 -3 -224 3 -210
5 -218 72 -267 39 -29 133 -29 172 0 68 51 69 53 69 294 0 205 -1 220 -21 246
-11 15 -32 37 -46 47 -33 25 -113 32 -153 13z"/>
</g>
</svg>
