<?xml version="1.0" standalone="no"?>
<!DOCTYPE svg PUBLIC "-//W3C//DTD SVG 20010904//EN"
 "http://www.w3.org/TR/2001/REC-SVG-20010904/DTD/svg10.dtd">
<svg version="1.0" xmlns="http://www.w3.org/2000/svg"
 width="512.000000pt" height="512.000000pt" viewBox="0 0 512.000000 512.000000"
 preserveAspectRatio="xMidYMid meet">

<g transform="translate(0.000000,512.000000) scale(0.100000,-0.100000)"
fill="#000000" stroke="none">
<path d="M2522 5106 c-13 -7 -41 -46 -61 -87 -60 -118 -141 -243 -492 -754
-454 -660 -635 -942 -830 -1292 -192 -344 -324 -669 -376 -929 -23 -115 -22
-367 1 -509 108 -657 562 -1204 1181 -1425 216 -78 370 -103 615 -103 245 0
399 25 615 103 617 220 1080 778 1179 1420 46 301 24 511 -86 820 -161 454
-443 932 -1151 1954 -281 406 -386 569 -449 696 -61 121 -86 140 -146 106z"/>
</g>
</svg>
