<svg width="84" height="39" viewBox="0 0 84 39" fill="none" xmlns="http://www.w3.org/2000/svg">
<path d="M3.64258 29.05C2.74258 29.05 2.05924 28.7833 1.59258 28.25C1.12591 27.6833 0.892578 27.0333 0.892578 26.3C0.892578 25.5333 1.12591 24.8833 1.59258 24.35C2.05924 23.7833 2.74258 23.5 3.64258 23.5C2.80924 23.5 2.17591 23.2333 1.74258 22.7C1.30924 22.1667 1.09258 21.5667 1.09258 20.9C1.09258 20.2 1.30924 19.6 1.74258 19.1C2.17591 18.5667 2.80924 18.3 3.64258 18.3C3.00924 18.3 2.49258 18.0667 2.09258 17.6C1.72591 17.1 1.47591 16.5 1.34258 15.8C1.24258 15.0667 1.24258 14.35 1.34258 13.65C1.47591 12.95 1.72591 12.3667 2.09258 11.9C2.49258 11.4 3.00924 11.15 3.64258 11.15C2.47591 11.15 1.69258 10.8833 1.29258 10.35C0.892578 9.81666 0.892578 9.28333 1.29258 8.75C1.69258 8.21667 2.47591 7.95 3.64258 7.95C2.90924 7.88333 2.35924 7.61667 1.99258 7.15C1.65924 6.68333 1.50924 6.16667 1.54258 5.6C1.57591 5 1.79258 4.5 2.19258 4.1C2.59258 3.66667 3.15924 3.46667 3.89258 3.5C3.89258 2.53333 4.17591 1.8 4.74258 1.3C5.30925 0.799998 5.95925 0.549998 6.69258 0.549998C7.42591 0.549998 8.07591 0.799998 8.64258 1.3C9.20925 1.8 9.49258 2.53333 9.49258 3.5C9.49258 2.83333 9.74258 2.31666 10.2426 1.95C10.7759 1.55 11.4092 1.28333 12.1426 1.15C12.9092 1.01667 13.6592 1.01667 14.3926 1.15C15.1592 1.28333 15.7926 1.55 16.2926 1.95C16.8259 2.31666 17.0926 2.83333 17.0926 3.5C17.0926 2.53333 17.3259 1.81666 17.7926 1.35C18.2592 0.849998 18.7926 0.599998 19.3926 0.599998C20.0259 0.599998 20.5592 0.849998 20.9926 1.35C21.4592 1.81666 21.6926 2.55 21.6926 3.55C21.7926 2.68333 22.0259 2.06666 22.3926 1.7C22.7926 1.3 23.2092 1.13333 23.6426 1.2C24.1092 1.23333 24.4926 1.48333 24.7926 1.95C25.0926 2.41666 25.1926 3.06666 25.0926 3.9C25.3926 2.83333 25.7926 2.16667 26.2926 1.9C26.7926 1.63333 27.1759 1.75 27.4426 2.25C27.7426 2.71666 27.7426 3.48333 27.4426 4.55C27.9092 3.98333 28.4592 3.7 29.0926 3.7C29.7259 3.7 30.2926 3.91667 30.7926 4.35C31.2926 4.75 31.6092 5.25 31.7426 5.85C31.9092 6.45 31.7592 7.05 31.2926 7.65C32.1926 7.45 32.9092 7.55 33.4426 7.95C34.0092 8.31666 34.3592 8.81666 34.4926 9.45C34.6592 10.0833 34.5759 10.7 34.2426 11.3C33.9426 11.9 33.3426 12.3 32.4426 12.5C33.2092 12.7667 33.7259 13.1333 33.9926 13.6C34.2592 14.0667 34.3092 14.5167 34.1426 14.95C33.9759 15.3833 33.6426 15.7 33.1426 15.9C32.6426 16.1 32.0092 16.05 31.2426 15.75C32.0092 16.75 32.3426 17.5667 32.2426 18.2C32.1426 18.8 31.7759 19.0833 31.1426 19.05C30.5092 19.0167 29.8092 18.5 29.0426 17.5C29.4092 17.9667 29.6092 18.45 29.6426 18.95C30.5092 19.2833 31.2592 19.8167 31.8926 20.55C32.5259 21.2833 32.6426 22 32.2426 22.7C33.0426 22.5 33.6926 22.5167 34.1926 22.75C34.6926 22.95 34.9926 23.2667 35.0926 23.7C35.2259 24.1333 35.1426 24.5667 34.8426 25C34.5426 25.4333 33.9926 25.7667 33.1926 26C34.1259 26.2 34.7759 26.5667 35.1426 27.1C35.5426 27.6333 35.6759 28.2 35.5426 28.8C35.4426 29.3667 35.1092 29.8333 34.5426 30.2C34.0092 30.5667 33.2592 30.65 32.2926 30.45C32.9592 31.0833 33.2926 31.7333 33.2926 32.4C33.2926 33.0667 33.0759 33.6333 32.6426 34.1C32.2092 34.5333 31.6592 34.7667 30.9926 34.8C30.3259 34.8 29.6592 34.4833 28.9926 33.85C29.4259 34.8833 29.5592 35.65 29.3926 36.15C29.2592 36.6167 28.9592 36.75 28.4926 36.55C28.0259 36.3167 27.5759 35.6833 27.1426 34.65C27.2426 35.3833 27.0426 36 26.5426 36.5C26.0759 37 25.4592 37.3667 24.6926 37.6C23.9592 37.8333 23.1926 37.9167 22.3926 37.85C21.6259 37.7833 20.9592 37.55 20.3926 37.15C19.8259 36.7833 19.4926 36.2333 19.3926 35.5C19.3926 36.4 19.1259 37.0833 18.5926 37.55C18.0592 38.0167 17.4259 38.25 16.6926 38.25C15.9926 38.25 15.3759 38.0167 14.8426 37.55C14.3092 37.0833 14.0426 36.4 14.0426 35.5C14.0426 36.2667 13.8259 36.8333 13.3926 37.2C12.9926 37.6 12.5092 37.8 11.9426 37.8C11.3759 37.8 10.8759 37.6 10.4426 37.2C10.0426 36.8333 9.84258 36.2667 9.84258 35.5C9.84258 36.1333 9.62591 36.6167 9.19258 36.95C8.79258 37.25 8.27591 37.3667 7.64258 37.3C7.00925 37.2333 6.37591 36.9167 5.74258 36.35C5.14258 35.7833 4.62591 34.9167 4.19258 33.75C3.79258 32.55 3.60925 30.9833 3.64258 29.05ZM13.1426 13.25C13.6759 13.25 14.0592 13.4833 14.2926 13.95C14.5592 14.3833 14.7259 14.8667 14.7926 15.4C14.8592 15.9333 14.8926 16.3167 14.8926 16.55C14.9592 16.0167 15.1926 15.65 15.5926 15.45C15.9926 15.25 16.4092 15.2333 16.8426 15.4C17.2759 15.5333 17.5426 15.8333 17.6426 16.3C17.5759 15.7 17.8592 15.2667 18.4926 15C19.1259 14.7 19.6926 14.6667 20.1926 14.9C20.1259 14.5333 20.1926 14.1667 20.3926 13.8C20.6259 13.4 20.9426 13.1333 21.3426 13C21.0092 12.8 20.7426 12.4833 20.5426 12.05C20.3759 11.5833 20.3259 11.1667 20.3926 10.8C20.1259 11 19.8926 11.0333 19.6926 10.9C19.5259 10.7667 19.4759 10.5167 19.5426 10.15C19.1426 10.65 18.5426 10.8833 17.7426 10.85C16.9759 10.7833 16.4259 10.4833 16.0926 9.95C16.0926 10.35 15.9426 10.7 15.6426 11C15.3426 11.2667 14.9926 11.4 14.5926 11.4C14.7592 11.8 14.7092 12.2167 14.4426 12.65C14.2092 13.05 13.7759 13.25 13.1426 13.25ZM17.6926 29.9C17.6592 29.3333 17.8759 28.95 18.3426 28.75C18.8426 28.5167 19.3259 28.4667 19.7926 28.6C19.6259 28.0333 19.6592 27.4333 19.8926 26.8C20.1592 26.1333 20.5426 25.6333 21.0426 25.3C20.5092 25.0667 20.0259 24.7167 19.5926 24.25C19.1592 23.75 18.9092 23.25 18.8426 22.75C18.5759 23.1833 18.1426 23.45 17.5426 23.55C16.9426 23.65 16.3759 23.6167 15.8426 23.45C15.9426 23.9833 15.7926 24.4833 15.3926 24.95C15.0259 25.4167 14.5426 25.6167 13.9426 25.55C14.4426 25.85 14.7759 26.3333 14.9426 27C15.1092 27.6667 15.1426 28.2667 15.0426 28.8C15.5426 28.5667 16.1092 28.55 16.7426 28.75C17.3759 28.9167 17.6926 29.3 17.6926 29.9ZM38.5593 34.336C38.2953 34.336 38.0673 34.18 37.8753 33.868C37.7073 33.532 37.5873 33.112 37.5153 32.608C37.4433 32.104 37.4193 31.6 37.4433 31.096C37.4913 30.592 37.5873 30.172 37.7313 29.836C37.8753 29.476 38.0913 29.296 38.3793 29.296C38.2593 29.08 38.3193 28.816 38.5593 28.504C38.7993 28.192 39.1353 27.892 39.5673 27.604C40.0233 27.292 40.4913 27.028 40.9713 26.812C41.4753 26.596 41.9193 26.464 42.3033 26.416C42.6873 26.368 42.9393 26.452 43.0593 26.668C43.0113 26.356 43.1193 26.08 43.3833 25.84C43.6713 25.6 44.0313 25.42 44.4633 25.3C44.8953 25.18 45.3153 25.132 45.7233 25.156C46.1553 25.18 46.4913 25.3 46.7313 25.516C46.6353 25.132 46.7553 24.712 47.0913 24.256C46.4913 24.232 45.9393 24.136 45.4353 23.968C44.9313 23.776 44.6913 23.524 44.7153 23.212C44.7153 23.572 44.5713 23.836 44.2833 24.004C43.9953 24.172 43.6593 24.256 43.2753 24.256C42.9153 24.256 42.5913 24.172 42.3033 24.004C42.0153 23.836 41.8713 23.572 41.8713 23.212C41.6553 23.572 41.3793 23.776 41.0433 23.824C40.7073 23.872 40.3713 23.812 40.0353 23.644C39.7233 23.452 39.4953 23.2 39.3513 22.888C39.2073 22.552 39.2433 22.204 39.4593 21.844C39.0513 21.388 38.8953 20.98 38.9913 20.62C39.1113 20.236 39.3633 20.008 39.7473 19.936C40.1313 19.864 40.5273 20.056 40.9353 20.512C40.6473 19.96 40.5753 19.528 40.7193 19.216C40.8633 18.904 41.0913 18.784 41.4033 18.856C41.7393 18.904 42.0513 19.216 42.3393 19.792C42.2433 19.408 42.2913 19.084 42.4833 18.82C42.6993 18.532 42.9753 18.34 43.3113 18.244C43.6713 18.148 44.0073 18.16 44.3193 18.28C44.6553 18.4 44.8713 18.652 44.9673 19.036C44.9433 18.556 45.0993 18.196 45.4353 17.956C45.7713 17.692 46.1673 17.548 46.6233 17.524C47.0793 17.5 47.4873 17.596 47.8473 17.812C48.2073 18.028 48.3993 18.376 48.4233 18.856C48.4713 18.208 48.6393 17.788 48.9273 17.596C49.2153 17.404 49.4793 17.428 49.7193 17.668C49.9593 17.908 50.0553 18.352 50.0073 19C50.1273 18.568 50.3553 18.292 50.6913 18.172C51.0273 18.028 51.3753 18.016 51.7353 18.136C52.1193 18.232 52.4193 18.436 52.6353 18.748C52.8513 19.036 52.8993 19.384 52.7793 19.792C53.0433 19.456 53.3553 19.3 53.7153 19.324C54.0753 19.324 54.3993 19.444 54.6873 19.684C54.9993 19.9 55.1913 20.188 55.2633 20.548C55.3593 20.908 55.2753 21.256 55.0113 21.592C55.5873 21.328 56.0553 21.328 56.4153 21.592C56.7753 21.856 56.9313 22.204 56.8833 22.636C56.8353 23.068 56.5233 23.416 55.9473 23.68C56.4273 23.656 56.7873 23.872 57.0273 24.328C57.2913 24.76 57.4353 25.264 57.4593 25.84C57.5073 26.416 57.4233 26.944 57.2073 27.424C56.9913 27.88 56.6433 28.12 56.1633 28.144C56.5473 28.144 56.8353 28.3 57.0273 28.612C57.2193 28.9 57.3153 29.248 57.3153 29.656C57.3153 30.04 57.2193 30.388 57.0273 30.7C56.8353 30.988 56.5473 31.132 56.1633 31.132C56.5953 31.132 56.9433 31.3 57.2073 31.636C57.4713 31.948 57.6513 32.356 57.7473 32.86C57.8673 33.34 57.8913 33.832 57.8193 34.336C57.7473 34.84 57.5913 35.272 57.3513 35.632C57.1113 35.968 56.7873 36.148 56.3793 36.172C56.3553 36.556 56.1633 36.868 55.8033 37.108C55.4673 37.348 55.0473 37.504 54.5433 37.576C54.0393 37.648 53.5233 37.636 52.9953 37.54C52.4913 37.468 52.0713 37.3 51.7353 37.036C51.3993 36.796 51.2313 36.484 51.2313 36.1C51.2313 36.7 51.0993 37.108 50.8353 37.324C50.5713 37.54 50.3073 37.54 50.0433 37.324C49.7793 37.132 49.6473 36.724 49.6473 36.1C49.3353 36.484 49.0113 36.688 48.6753 36.712C48.3393 36.736 48.0513 36.64 47.8113 36.424C47.5953 36.208 47.4993 35.944 47.5233 35.632C47.1393 35.944 46.5153 36.16 45.6513 36.28C44.8113 36.4 43.7793 36.328 42.5553 36.064C41.3313 35.776 39.9993 35.2 38.5593 34.336ZM47.7753 32.572C47.5593 32.452 47.4753 32.236 47.5233 31.924C47.5713 31.612 47.6793 31.276 47.8473 30.916C48.0393 30.556 48.2553 30.256 48.4953 30.016C48.2793 29.968 48.0753 29.86 47.8833 29.692C47.7153 29.524 47.6073 29.332 47.5593 29.116C47.3913 29.356 47.1393 29.56 46.8033 29.728C46.4673 29.872 46.1193 29.956 45.7593 29.98C45.4233 30.004 45.1473 29.944 44.9313 29.8C45.0033 30.016 44.9553 30.208 44.7873 30.376C45.1233 30.496 45.4833 30.712 45.8673 31.024C46.2753 31.336 46.6473 31.648 46.9833 31.96C47.3193 32.272 47.5833 32.476 47.7753 32.572ZM68.2259 36.1C68.1059 36.628 67.8419 36.976 67.4339 37.144C67.0259 37.336 66.5939 37.372 66.1379 37.252C65.7059 37.156 65.3459 36.94 65.0579 36.604C64.7939 36.244 64.7339 35.8 64.8779 35.272C64.5659 35.728 64.1699 35.968 63.6899 35.992C63.2099 35.992 62.7539 35.848 62.3219 35.56C61.9139 35.272 61.6139 34.912 61.4219 34.48C61.2539 34.024 61.3259 33.568 61.6379 33.112C61.1579 33.376 60.7379 33.46 60.3779 33.364C60.0179 33.244 59.7539 33.04 59.5859 32.752C59.4179 32.44 59.3939 32.116 59.5139 31.78C59.6339 31.42 59.9339 31.108 60.4139 30.844C60.2699 30.34 60.3059 29.932 60.5219 29.62C60.7619 29.284 61.0739 29.056 61.4579 28.936C61.8419 28.816 62.2139 28.84 62.5739 29.008C62.9579 29.176 63.2219 29.5 63.3659 29.98C63.4619 29.476 63.7739 29.14 64.3019 28.972C64.8299 28.804 65.4179 28.768 66.0659 28.864C66.7139 28.96 67.2779 29.164 67.7579 29.476C68.2619 29.788 68.5379 30.196 68.5859 30.7C68.6579 30.292 68.8859 29.968 69.2699 29.728C69.6539 29.488 70.1099 29.332 70.6379 29.26C71.1659 29.188 71.6699 29.2 72.1499 29.296C72.1259 29.008 72.2219 28.72 72.4379 28.432C72.2219 28.192 72.1739 27.856 72.2939 27.424C72.0779 27.88 71.6699 28.168 71.0699 28.288C70.4939 28.408 69.8819 28.396 69.2339 28.252C68.5859 28.108 68.0339 27.856 67.5779 27.496C67.1459 27.136 66.9779 26.692 67.0739 26.164C66.8819 26.644 66.5339 26.932 66.0299 27.028C65.5499 27.1 65.0579 27.028 64.5539 26.812C64.0499 26.596 63.6539 26.284 63.3659 25.876C63.0779 25.468 63.0419 25.036 63.2579 24.58C62.8259 24.892 62.3939 25 61.9619 24.904C61.5299 24.784 61.1819 24.544 60.9179 24.184C60.6539 23.824 60.5219 23.428 60.5219 22.996C60.5219 22.564 60.7379 22.18 61.1699 21.844C60.5699 21.916 60.1019 21.844 59.7659 21.628C59.4539 21.412 59.2739 21.148 59.2259 20.836C59.1779 20.5 59.2859 20.188 59.5499 19.9C59.8139 19.588 60.2459 19.396 60.8459 19.324C60.1979 19.156 59.7299 18.916 59.4419 18.604C59.1779 18.268 59.0819 17.944 59.1539 17.632C59.2499 17.32 59.4899 17.092 59.8739 16.948C60.2819 16.78 60.8099 16.792 61.4579 16.984C60.9299 16.576 60.6179 16.168 60.5219 15.76C60.4259 15.328 60.4739 14.98 60.6659 14.716C60.8819 14.452 61.1939 14.32 61.6019 14.32C62.0339 14.32 62.5139 14.524 63.0419 14.932C62.7539 14.452 62.6459 14.02 62.7179 13.636C62.7899 13.252 62.9699 12.976 63.2579 12.808C63.5459 12.616 63.8699 12.58 64.2299 12.7C64.6139 12.796 64.9499 13.084 65.2379 13.564C65.1179 13.036 65.1899 12.604 65.4539 12.268C65.7419 11.908 66.1139 11.668 66.5699 11.548C67.0259 11.428 67.4579 11.452 67.8659 11.62C68.2979 11.788 68.5859 12.124 68.7299 12.628C68.7539 12.124 68.9459 11.728 69.3059 11.44C69.6659 11.128 70.0979 10.936 70.6019 10.864C71.1299 10.768 71.6459 10.792 72.1499 10.936C72.6779 11.056 73.0979 11.284 73.4099 11.62C73.7459 11.932 73.9019 12.352 73.8779 12.88C74.1179 12.4 74.4659 12.1 74.9219 11.98C75.3779 11.86 75.8699 11.872 76.3979 12.016C76.9499 12.136 77.4419 12.364 77.8739 12.7C78.3299 13.012 78.6539 13.396 78.8459 13.852C79.0619 14.284 79.0619 14.728 78.8459 15.184C79.2299 14.968 79.6259 14.968 80.0339 15.184C80.4419 15.4 80.7779 15.736 81.0419 16.192C81.3059 16.648 81.4379 17.104 81.4379 17.56C81.4379 18.016 81.2459 18.364 80.8619 18.604C80.8619 19.084 80.6219 19.444 80.1419 19.684C79.6859 19.924 79.1579 20.044 78.5579 20.044C77.9579 20.044 77.4179 19.924 76.9379 19.684C76.4819 19.444 76.2539 19.084 76.2539 18.604C76.1579 19.06 75.9059 19.36 75.4979 19.504C75.0899 19.648 74.6459 19.684 74.1659 19.612C73.6859 19.516 73.2659 19.324 72.9059 19.036C72.5699 18.748 72.4139 18.388 72.4379 17.956C72.3659 18.34 72.1499 18.616 71.7899 18.784C71.4539 18.952 71.0939 19.012 70.7099 18.964C70.8059 19.588 70.6139 20.104 70.1339 20.512C70.1579 20.68 70.1339 20.872 70.0619 21.088C70.3259 20.728 70.7579 20.512 71.3579 20.44C71.9819 20.344 72.6179 20.38 73.2659 20.548C73.9379 20.692 74.4899 20.944 74.9219 21.304C75.3539 21.64 75.5339 22.048 75.4619 22.528C75.6299 22.096 75.9539 21.856 76.4339 21.808C76.9379 21.736 77.4659 21.808 78.0179 22.024C78.5699 22.216 79.0139 22.504 79.3499 22.888C79.7099 23.272 79.8059 23.668 79.6379 24.076C80.0459 23.836 80.4539 23.836 80.8619 24.076C81.2939 24.316 81.6539 24.676 81.9419 25.156C82.2299 25.636 82.3739 26.128 82.3739 26.632C82.3979 27.112 82.2059 27.472 81.7979 27.712C82.3259 27.784 82.6859 28.048 82.8779 28.504C83.0939 28.96 83.1539 29.452 83.0579 29.98C82.9859 30.508 82.7819 30.952 82.4459 31.312C82.1339 31.672 81.7019 31.816 81.1499 31.744C81.4379 32.08 81.5219 32.476 81.4019 32.932C81.3059 33.364 81.0779 33.796 80.7179 34.228C80.3579 34.636 79.9379 34.984 79.4579 35.272C78.9779 35.536 78.5099 35.692 78.0539 35.74C77.5979 35.764 77.2259 35.596 76.9379 35.236C77.0579 35.788 76.9379 36.244 76.5779 36.604C76.2179 36.964 75.7499 37.204 75.1739 37.324C74.6219 37.468 74.1059 37.444 73.6259 37.252C73.1459 37.084 72.8459 36.736 72.7259 36.208C72.7739 37.36 72.3899 37.936 71.5739 37.936C70.7819 37.96 69.6659 37.348 68.2259 36.1Z" fill="#25BDE2"/>
</svg>
